G04 MADE WITH FRITZING*
G04 WWW.FRITZING.ORG*
G04 DOUBLE SIDED*
G04 HOLES PLATED*
G04 CONTOUR ON CENTER OF CONTOUR VECTOR*
%ASAXBY*%
%FSLAX23Y23*%
%MOIN*%
%OFA0B0*%
%SFA1.0B1.0*%
%ADD10C,0.047859*%
%ADD11C,0.092000*%
%ADD12R,0.092000X0.092000*%
%ADD13R,0.062992X0.074803*%
%ADD14C,0.024000*%
%LNCOPPER1*%
G90*
G70*
G54D10*
X1567Y417D03*
X1766Y1314D03*
X1666Y1314D03*
X1567Y1314D03*
X1467Y1314D03*
X1367Y1314D03*
X1666Y417D03*
X1766Y417D03*
X1467Y417D03*
X1267Y1314D03*
X1167Y1314D03*
X1067Y1314D03*
X968Y1314D03*
X868Y1314D03*
X768Y1314D03*
X668Y1314D03*
X568Y1314D03*
X468Y1314D03*
X368Y1314D03*
X1067Y417D03*
X968Y417D03*
X868Y417D03*
X768Y417D03*
X668Y417D03*
X568Y417D03*
X468Y417D03*
X368Y417D03*
X1367Y417D03*
X1267Y417D03*
X1167Y417D03*
G54D11*
X1494Y200D03*
X1794Y200D03*
G54D12*
X1494Y200D03*
G54D13*
X1187Y208D03*
X1309Y208D03*
G54D14*
X1794Y313D02*
X1794Y237D01*
D02*
X1489Y310D02*
X1794Y313D01*
D02*
X1335Y223D02*
X1489Y310D01*
D02*
X1318Y240D02*
X1361Y395D01*
D02*
X1169Y394D02*
X1184Y240D01*
G04 End of Copper1*
M02*