; NON-PLATED HOLES START AT T1
; THROUGH (PLATED) HOLES START AT T100
M48
INCH
T1C0.086614
T100C0.022334
T101C0.052000
%
T1
X020527Y014047
X000724Y000819
X000724Y014087
X020527Y000859
T100
X011672Y013139
X012670Y004166
X006680Y004166
X010673Y013139
X005681Y004166
X014667Y004166
X011672Y004166
X007678Y004166
X012670Y013139
X016664Y004166
X007678Y013139
X013669Y004166
X009675Y004166
X004683Y004166
X008676Y013139
X010673Y004166
X003684Y004166
X017663Y013139
X003684Y013139
X013669Y013139
X016664Y013139
X015666Y004166
X004683Y013139
X008676Y004166
X015666Y013139
X014667Y013139
X017663Y004166
X006680Y013139
X005681Y013139
X009675Y013139
T101
X017936Y002000
X014936Y002000
T00
M30
